<?xml version="1.0" encoding="UTF-8"?>
<svg xmlns="http://www.w3.org/2000/svg" xmlns:xlink="http://www.w3.org/1999/xlink" viewBox="0 0 43 43">
  <defs>
    <style>
      .cls-1 {
        fill: #fff;
      }

      .cls-2 {
        isolation: isolate;
      }

      .cls-3 {
        fill: url(#radial-gradient);
        mix-blend-mode: multiply;
        opacity: .8;
      }

      .cls-4 {
        fill: url(#linear-gradient);
      }
    </style>
    <radialGradient id="radial-gradient" cx="21.5" cy="21.5" fx="21.5" fy="21.5" r="21.5" gradientUnits="userSpaceOnUse">
      <stop offset="0" stop-color="#000056"/>
      <stop offset=".39" stop-color="#7373a2" stop-opacity=".55"/>
      <stop offset=".78" stop-color="#d8d8e5" stop-opacity=".15"/>
      <stop offset="1" stop-color="#fff" stop-opacity="0"/>
    </radialGradient>
    <linearGradient id="linear-gradient" x1="230.59" y1="442.24" x2="255.34" y2="466.99" gradientTransform="translate(476.12 -221.47) rotate(90)" gradientUnits="userSpaceOnUse">
      <stop offset="0" stop-color="#4676ed"/>
      <stop offset=".19" stop-color="#436de4"/>
      <stop offset=".49" stop-color="#3b54cd"/>
      <stop offset=".87" stop-color="#2f2da8"/>
      <stop offset="1" stop-color="#2b1e99"/>
    </linearGradient>
  </defs>
  <g class="cls-2">
    <g id="ELEMENTS">
      <g>
        <circle class="cls-3" cx="21.5" cy="21.5" r="21.5"/>
        <g>
          <path class="cls-4" d="M6.88,28.47V14.53c0-4.21,3.44-7.65,7.65-7.65h13.94c4.21,0,7.65,3.44,7.65,7.65v13.94c0,4.21-3.44,7.65-7.65,7.65h-4.69l-2.45-.6-2.11,.6h-4.69c-4.21,0-7.65-3.44-7.65-7.65Z"/>
          <path class="cls-1" d="M27.19,26.21l.65-4.23h-4.06v-2.74c0-1.16,.57-2.28,2.38-2.28h1.84v-3.6s-1.67-.29-3.27-.29c-3.34,0-5.52,2.02-5.52,5.69v3.22h-3.71v4.23h3.71v9.91h4.57v-9.91h3.41Z"/>
        </g>
      </g>
    </g>
  </g>
</svg>