<?xml version="1.0" encoding="UTF-8"?>
<svg xmlns="http://www.w3.org/2000/svg" xmlns:xlink="http://www.w3.org/1999/xlink" viewBox="0 0 42 42">
  <defs>
    <style>
      .cls-1 {
        fill: #fff;
      }

      .cls-2 {
        isolation: isolate;
      }

      .cls-3 {
        fill: url(#Degradado_sin_nombre_3);
      }

      .cls-4 {
        fill: url(#radial-gradient);
        mix-blend-mode: multiply;
        opacity: .8;
      }
    </style>
    <radialGradient id="radial-gradient" cx="21" cy="21" fx="21" fy="21" r="21" gradientUnits="userSpaceOnUse">
      <stop offset="0" stop-color="#000056"/>
      <stop offset=".39" stop-color="#7373a2" stop-opacity=".55"/>
      <stop offset=".78" stop-color="#d8d8e5" stop-opacity=".15"/>
      <stop offset="1" stop-color="#fff" stop-opacity="0"/>
    </radialGradient>
    <linearGradient id="Degradado_sin_nombre_3" data-name="Degradado sin nombre 3" x1="203.19" y1="396.97" x2="241.01" y2="434.78" gradientTransform="translate(-196.94 -390.78)" gradientUnits="userSpaceOnUse">
      <stop offset="0" stop-color="#fbe18a"/>
      <stop offset=".21" stop-color="#fcbb45"/>
      <stop offset=".38" stop-color="#f75274"/>
      <stop offset=".52" stop-color="#d53692"/>
      <stop offset=".74" stop-color="#8f39ce"/>
      <stop offset="1" stop-color="#5b4fe9"/>
    </linearGradient>
  </defs>
  <g class="cls-2">
    <g id="ELEMENTS">
      <g>
        <circle class="cls-4" cx="21" cy="21" r="21"/>
        <rect class="cls-3" x="6.55" y="6.48" width="29.24" height="29.24" rx="7.65" ry="7.65" transform="translate(42.28 -.07) rotate(90)"/>
        <g>
          <path class="cls-1" d="M25.71,15.6c-.56,0-1.01,.45-1.01,1.01s.45,1.01,1.01,1.01,1.01-.45,1.01-1.01-.45-1.01-1.01-1.01Z"/>
          <path class="cls-1" d="M21.24,16.88c-2.33,0-4.22,1.89-4.22,4.22s1.89,4.22,4.22,4.22,4.22-1.89,4.22-4.22-1.89-4.22-4.22-4.22Zm0,6.93c-1.49,0-2.7-1.21-2.7-2.7s1.21-2.7,2.7-2.7,2.7,1.21,2.7,2.7-1.21,2.7-2.7,2.7Z"/>
          <path class="cls-1" d="M24.59,29.68h-6.84c-2.84,0-5.15-2.31-5.15-5.15v-6.84c0-2.84,2.31-5.15,5.15-5.15h6.84c2.84,0,5.15,2.31,5.15,5.15v6.84c0,2.84-2.31,5.15-5.15,5.15Zm-6.84-15.53c-1.95,0-3.54,1.59-3.54,3.54v6.84c0,1.95,1.59,3.54,3.54,3.54h6.84c1.95,0,3.54-1.59,3.54-3.54v-6.84c0-1.95-1.59-3.54-3.54-3.54h-6.84Z"/>
        </g>
      </g>
    </g>
  </g>
</svg>