<?xml version="1.0" encoding="UTF-8"?>
<svg xmlns="http://www.w3.org/2000/svg" xmlns:xlink="http://www.w3.org/1999/xlink" viewBox="0 0 42 42">
  <defs>
    <style>
      .cls-1 {
        fill: #fff;
      }

      .cls-1, .cls-2, .cls-3 {
        fill-rule: evenodd;
      }

      .cls-2 {
        fill: #69c9d0;
      }

      .cls-4 {
        isolation: isolate;
      }

      .cls-3 {
        fill: #ee1d52;
      }

      .cls-5 {
        fill: url(#radial-gradient);
        mix-blend-mode: multiply;
        opacity: .8;
      }

      .cls-6 {
        fill: url(#linear-gradient);
      }
    </style>
    <radialGradient id="radial-gradient" cx="21" cy="21" fx="21" fy="21" r="21" gradientUnits="userSpaceOnUse">
      <stop offset="0" stop-color="#000056"/>
      <stop offset=".39" stop-color="#7373a2" stop-opacity=".55"/>
      <stop offset=".78" stop-color="#d8d8e5" stop-opacity=".15"/>
      <stop offset="1" stop-color="#fff" stop-opacity="0"/>
    </radialGradient>
    <linearGradient id="linear-gradient" x1="147.17" y1="428.21" x2="171.92" y2="403.46" gradientTransform="translate(-138.54 -395.31)" gradientUnits="userSpaceOnUse">
      <stop offset="0" stop-color="#22004a"/>
      <stop offset=".96" stop-color="#010003"/>
      <stop offset="1" stop-color="#000"/>
    </linearGradient>
  </defs>
  <g class="cls-4">
    <g id="ELEMENTS">
      <g>
        <circle class="cls-5" cx="21" cy="21" r="21"/>
        <rect class="cls-6" x="6.38" y="5.91" width="29.24" height="29.24" rx="7.65" ry="7.65" transform="translate(41.53 -.47) rotate(90)"/>
        <g>
          <path class="cls-3" d="M24.95,17.85c1.2,.85,2.66,1.36,4.25,1.36v-3.04c-.3,0-.6-.03-.89-.09v2.4c-1.58,0-3.05-.5-4.25-1.36v6.21c0,3.11-2.52,5.63-5.63,5.63-1.16,0-2.24-.35-3.13-.95,1.02,1.04,2.45,1.69,4.03,1.69,3.11,0,5.63-2.52,5.63-5.63v-6.21h0Zm1.1-3.07c-.61-.67-1.01-1.53-1.1-2.48v-.39h-.84c.21,1.21,.94,2.25,1.94,2.88h0Zm-8.79,10.84c-.34-.45-.53-1-.53-1.56,0-1.42,1.15-2.57,2.58-2.57,.27,0,.53,.04,.78,.12v-3.11c-.3-.04-.59-.06-.89-.05v2.42c-.25-.08-.52-.12-.78-.12-1.42,0-2.58,1.15-2.58,2.57,0,1.01,.58,1.88,1.42,2.3Z"/>
          <path class="cls-1" d="M24.06,17.11c1.2,.85,2.66,1.36,4.25,1.36v-2.4c-.88-.19-1.67-.65-2.25-1.29-1.01-.63-1.73-1.66-1.94-2.88h-2.22v12.16c0,1.42-1.16,2.57-2.58,2.57-.84,0-1.58-.4-2.05-1.02-.84-.42-1.42-1.29-1.42-2.3,0-1.42,1.15-2.57,2.58-2.57,.27,0,.54,.04,.78,.12v-2.42c-3.06,.06-5.51,2.56-5.51,5.63,0,1.53,.61,2.92,1.61,3.93,.9,.6,1.97,.95,3.13,.95,3.11,0,5.63-2.52,5.63-5.63v-6.21Z"/>
          <path class="cls-2" d="M28.31,16.07v-.65c-.8,0-1.58-.22-2.25-.64,.6,.65,1.39,1.11,2.25,1.29Zm-4.2-4.17c-.02-.12-.04-.23-.05-.35v-.39h-3.06v12.16c0,1.42-1.16,2.57-2.58,2.57-.42,0-.81-.1-1.16-.27,.47,.62,1.21,1.02,2.05,1.02,1.42,0,2.57-1.15,2.58-2.57V11.9h2.22Zm-4.9,6.53v-.69c-.26-.03-.51-.05-.77-.05-3.11,0-5.63,2.52-5.63,5.63,0,1.95,.99,3.67,2.5,4.68-.99-1.01-1.6-2.4-1.6-3.93,0-3.07,2.46-5.56,5.51-5.63h0Z"/>
        </g>
      </g>
    </g>
  </g>
</svg>