<?xml version="1.0" encoding="UTF-8"?>
<svg xmlns="http://www.w3.org/2000/svg" xmlns:xlink="http://www.w3.org/1999/xlink" viewBox="0 0 42 42">
  <defs>
    <style>
      .cls-1, .cls-2 {
        fill: #fff;
      }

      .cls-2 {
        fill-rule: evenodd;
      }

      .cls-3 {
        isolation: isolate;
      }

      .cls-4 {
        fill: url(#Degradado_sin_nombre_8);
      }

      .cls-5 {
        fill: url(#radial-gradient);
        mix-blend-mode: multiply;
        opacity: .8;
      }
    </style>
    <radialGradient id="radial-gradient" cx="21" cy="21" fx="21" fy="21" r="21" gradientUnits="userSpaceOnUse">
      <stop offset="0" stop-color="#000056"/>
      <stop offset=".39" stop-color="#7373a2" stop-opacity=".55"/>
      <stop offset=".78" stop-color="#d8d8e5" stop-opacity=".15"/>
      <stop offset="1" stop-color="#fff" stop-opacity="0"/>
    </radialGradient>
    <linearGradient id="Degradado_sin_nombre_8" data-name="Degradado sin nombre 8" x1="20.92" y1="239.86" x2="45.67" y2="264.61" gradientTransform="translate(-12.29 -231.23)" gradientUnits="userSpaceOnUse">
      <stop offset="0" stop-color="#60fc7c"/>
      <stop offset="1" stop-color="#4ab161"/>
    </linearGradient>
  </defs>
  <g class="cls-3">
    <g id="ELEMENTS">
      <g>
        <circle class="cls-5" cx="21" cy="21" r="21"/>
        <rect class="cls-4" x="6.38" y="6.38" width="29.24" height="29.24" rx="7.65" ry="7.65" transform="translate(42 0) rotate(90)"/>
        <path class="cls-1" d="M13.1,29.27l1.22-4.55c-.69-1.25-1.05-2.64-1.05-4.06,0-4.63,3.77-8.4,8.4-8.4s8.4,3.77,8.4,8.4-3.77,8.4-8.4,8.4c-1.39,0-2.76-.35-3.99-1.02l-4.57,1.22Zm4.8-2.93l.29,.17c1.06,.63,2.26,.96,3.48,.96,3.76,0,6.81-3.06,6.81-6.81s-3.06-6.81-6.81-6.81-6.81,3.06-6.81,6.81c0,1.24,.34,2.46,1,3.53l.18,.29-.68,2.54,2.55-.68Z"/>
        <path class="cls-2" d="M24.79,21.84c-.35-.21-.8-.44-1.2-.27-.31,.13-.51,.62-.71,.87-.1,.13-.23,.15-.39,.08-1.17-.47-2.07-1.25-2.72-2.33-.11-.17-.09-.3,.04-.46,.2-.23,.44-.49,.49-.8,.05-.31-.09-.67-.22-.95-.16-.35-.35-.86-.7-1.06-.33-.18-.75-.08-1.04,.16-.5,.41-.74,1.04-.73,1.68,0,.18,.02,.36,.07,.53,.1,.42,.29,.81,.51,1.18,.16,.28,.34,.55,.53,.81,.63,.85,1.41,1.59,2.31,2.15,.45,.28,.94,.52,1.44,.69,.56,.19,1.07,.38,1.68,.26,.64-.12,1.27-.52,1.52-1.13,.08-.18,.11-.39,.07-.58-.09-.4-.63-.63-.95-.83Z"/>
      </g>
    </g>
  </g>
</svg>